<?xml version="1.0" standalone="no"?>
<!DOCTYPE svg PUBLIC "-//W3C//DTD SVG 20010904//EN"
 "http://www.w3.org/TR/2001/REC-SVG-20010904/DTD/svg10.dtd">
<svg version="1.0" xmlns="http://www.w3.org/2000/svg"
 width="512.000000pt" height="512.000000pt" viewBox="0 0 512.000000 512.000000"
 preserveAspectRatio="xMidYMid meet">
<metadata>
Created by potrace 1.14, written by Peter Selinger 2001-2017
</metadata>
<g transform="translate(0.000000,512.000000) scale(0.100000,-0.100000)"
fill="#000000" stroke="none">
<path d="M3430 4856 c-173 -60 -246 -90 -390 -162 -393 -197 -675 -464 -850
-806 -52 -101 -132 -312 -146 -381 -2 -12 -7 -35 -11 -52 -4 -16 -7 -32 -8
-35 -1 -3 -5 -25 -9 -50 -5 -25 -10 -54 -12 -65 -3 -11 -7 -47 -10 -80 -3 -33
-7 -71 -9 -85 -3 -14 -5 -64 -6 -112 -1 -63 -4 -86 -13 -81 -57 33 -184 141
-272 230 -46 46 -64 59 -71 50 -24 -29 -101 -261 -125 -372 -31 -149 -42 -242
-42 -375 0 -97 9 -214 19 -250 2 -8 6 -31 9 -50 8 -57 55 -211 82 -269 13 -30
22 -56 20 -59 -3 -2 -56 33 -120 79 -166 122 -256 169 -358 188 -117 21 -273
0 -374 -52 -16 -8 -54 -18 -84 -22 -62 -8 -130 -25 -145 -36 -14 -11 -78 41
-148 120 -39 44 -75 101 -109 171 -28 58 -57 113 -66 122 -39 46 -142 25 -166
-33 -17 -40 -12 -76 21 -154 55 -132 125 -228 247 -342 71 -65 85 -84 90 -117
4 -21 17 -66 31 -100 17 -44 25 -83 26 -142 2 -103 35 -217 82 -288 86 -129
546 -465 889 -649 37 -20 75 -41 85 -46 160 -90 585 -245 756 -275 15 -3 35
-7 45 -10 97 -29 388 -60 572 -60 80 0 272 11 305 18 21 4 122 20 140 21 68 8
273 64 416 115 97 34 334 145 394 182 10 7 64 42 120 77 55 35 102 66 105 70
3 4 21 18 40 31 82 56 256 218 360 335 148 166 284 396 344 581 26 81 28 92
33 232 l5 132 -158 -79 c-165 -82 -234 -114 -369 -174 -151 -66 -178 -77 -189
-77 -7 0 1 27 20 68 37 75 78 210 90 292 10 67 11 268 2 330 -44 304 -196 586
-481 894 -120 129 -246 314 -323 475 -48 98 -120 304 -130 369 -3 21 -7 39 -9
42 -3 5 -6 20 -24 150 -10 67 -7 398 3 460 6 33 24 111 32 138 6 19 -23 14
-156 -32z"/>
</g>
</svg>
