<svg id="Layer_1" data-name="Layer 1" xmlns="http://www.w3.org/2000/svg" viewBox="0 0 234.52 55.28"><defs><style>.cls-1{font-size:30px;font-family:Futura-Medium, Futura;font-weight:500;}.cls-1,.cls-9{fill:#ed5564;}.cls-2{letter-spacing:0.01em;}.cls-3,.cls-4,.cls-5,.cls-6{fill:#f6bb42;}.cls-4{letter-spacing:0.01em;}.cls-5{letter-spacing:0.02em;}.cls-6{letter-spacing:0em;}.cls-7{fill:#ffce54;}.cls-8{fill:#8cc153;}.cls-10{opacity:0.1;isolation:isolate;}.cls-11{fill:#a0d468;}</style></defs><text class="cls-1" transform="translate(0 46.62)">Chil<tspan class="cls-2" x="52.41" y="0">l</tspan><tspan x="60.15" y="0">y</tspan><tspan class="cls-3" x="76.45" y="0">Cl</tspan><tspan class="cls-4" x="104.94" y="0">o</tspan><tspan class="cls-5" x="123.15" y="0">t</tspan><tspan class="cls-6" x="131.95" y="0">hes</tspan></text><g id="hot_pepper" data-name="hot pepper"><path class="cls-3" d="M7290.55,7215.07h14.06c6.41-3.71,11.61-12.37,2.57-22a18,18,0,0,1-4.62-16.73c-11.2,3.2-16.19,10.1-16.19,19.82a18.74,18.74,0,0,1-3.53-3.11C7278.15,7203.87,7283.68,7211.66,7290.55,7215.07Z" transform="translate(-7083.53 -7176.35)"/><path class="cls-7" d="M7299.75,7216.26h-6.93c-3.16-1.84-5.73-6.11-1.27-10.85a8.87,8.87,0,0,0,2.28-8.26c5.53,1.58,8,5,8,9.78a9.09,9.09,0,0,0,1.74-1.53C7305.87,7210.73,7303.14,7214.57,7299.75,7216.26Z" transform="translate(-7083.53 -7176.35)"/><path class="cls-8" d="M7274.1,7209.07l-.22,0a10.33,10.33,0,0,1-7.33-6.55,1.07,1.07,0,1,1,2-.69,8.28,8.28,0,0,0,5.73,5.14,1.07,1.07,0,0,1-.21,2.12Z" transform="translate(-7083.53 -7176.35)"/><path class="cls-9" d="M7317.94,7205.63c-29,15.14-34.26-.12-40.25-1.2-6.46-1.16-8.79,6.7-5.25,9.68C7298.55,7236.12,7319.73,7214.33,7317.94,7205.63Z" transform="translate(-7083.53 -7176.35)"/><path class="cls-10" d="M7272.44,7212a4.72,4.72,0,0,1-1.56-2.8,5.2,5.2,0,0,0,1.56,4.94c26,22,47.18.33,45.52-8.42C7316.44,7215.27,7296.54,7232.28,7272.44,7212Z" transform="translate(-7083.53 -7176.35)"/><path class="cls-11" d="M7270.49,7206.14c-1,1,.34,3.39.34,3.39l2.74-4.45A5.41,5.41,0,0,0,7270.49,7206.14Z" transform="translate(-7083.53 -7176.35)"/></g></svg>